<?xml version="1.0" encoding="utf-8"?>
<!-- Generator: Adobe Illustrator 16.0.4, SVG Export Plug-In . SVG Version: 6.00 Build 0)  -->
<!DOCTYPE svg PUBLIC "-//W3C//DTD SVG 1.1//EN" "http://www.w3.org/Graphics/SVG/1.1/DTD/svg11.dtd">
<svg version="1.1" id="Ebene_1" xmlns="http://www.w3.org/2000/svg" xmlns:xlink="http://www.w3.org/1999/xlink" x="0px" y="0px"
	 width="39.685px" height="62.362px" viewBox="0 0 39.685 62.362" enable-background="new 0 0 39.685 62.362" xml:space="preserve">
<g>
	<path d="M28.052,12.799c1.607,0,2.936-0.526,3.988-1.577c1.05-1.051,1.576-2.4,1.576-4.049c0-1.608-0.526-2.937-1.576-3.988
		c-1.052-1.051-2.381-1.576-3.988-1.576c-1.648,0-2.998,0.525-4.049,1.576c-1.051,1.051-1.576,2.38-1.576,3.988
		c0,1.607,0.525,2.947,1.576,4.018C25.054,12.264,26.403,12.799,28.052,12.799z"/>
	<path d="M12.718,12.799c1.608,0,2.937-0.526,3.988-1.577c1.05-1.051,1.576-2.4,1.576-4.049c0-1.608-0.525-2.937-1.576-3.988
		c-1.052-1.051-2.38-1.576-3.988-1.576c-1.648,0-2.998,0.525-4.049,1.576c-1.051,1.051-1.576,2.38-1.576,3.988
		c0,1.607,0.525,2.947,1.576,4.018C9.721,12.264,11.07,12.799,12.718,12.799z"/>
	<path d="M26.254,16.768v4.082h3.362L23.132,38.62h-0.36L16.409,20.85h3.361v-4.082H3.021v4.082h2.881L18.09,49.606l-0.601,1.561
		c-1.62,4.143-3.361,6.604-5.522,6.604c-0.241,0-0.36,0-0.54-0.059l-0.181-0.36c0.42-0.602,0.721-1.621,0.721-2.582
		c0-2.401-1.681-4.562-4.623-4.562c-3.002,0-4.863,1.741-4.863,4.683c0,3.302,2.941,6.124,7.924,6.124
		c6.784,0,9.485-5.283,11.346-9.666L34.66,20.85h2.881v-4.082H26.254z"/>
</g>
</svg>
